<?xml version="1.0" standalone="no"?>
<!DOCTYPE svg PUBLIC "-//W3C//DTD SVG 20010904//EN"
 "http://www.w3.org/TR/2001/REC-SVG-20010904/DTD/svg10.dtd">
<svg version="1.0" xmlns="http://www.w3.org/2000/svg"
 width="256.000000pt" height="247.000000pt" viewBox="0 0 256.000000 247.000000"
 preserveAspectRatio="xMidYMid meet">

<g transform="translate(0.000000,247.000000) scale(0.100000,-0.100000)"
fill="#000000" stroke="none">
<path d="M385 2453 c-155 -33 -296 -135 -351 -255 -24 -53 -29 -76 -29 -143 0
-71 4 -88 33 -147 61 -124 207 -225 365 -252 43 -8 80 -16 82 -18 2 -2 -5 -33
-16 -68 -50 -161 -65 -427 -34 -606 67 -379 301 -704 620 -859 131 -64 244
-94 380 -102 678 -38 1220 638 1109 1385 -61 411 -320 769 -664 918 -141 61
-217 77 -380 78 -174 1 -287 -22 -425 -88 l-86 -41 -62 60 c-134 130 -337 182
-542 138z m331 -38 c123 -41 224 -119 269 -206 10 -18 30 -50 46 -72 39 -54
69 -155 69 -233 l0 -64 -51 36 c-27 20 -54 33 -58 28 -4 -5 -19 -26 -35 -46
-15 -21 -35 -38 -46 -38 -30 0 -50 11 -50 29 0 9 -13 43 -29 76 -37 79 -105
140 -180 161 -65 19 -57 14 -65 40 -5 18 -2 22 22 27 32 6 82 52 82 75 0 10
-6 12 -22 7 -51 -15 -64 -15 -96 5 -48 30 -61 75 -37 133 12 29 -23 21 -57
-13 -28 -29 -30 -35 -26 -86 3 -38 11 -61 27 -78 16 -17 21 -33 19 -56 -3 -30
-8 -35 -55 -50 -106 -35 -172 -100 -208 -210 -10 -29 -27 -55 -46 -69 l-31
-23 -35 33 c-19 19 -49 63 -66 99 -156 316 261 629 659 495z m944 -66 c276
-50 536 -237 694 -498 364 -602 153 -1429 -439 -1722 -253 -125 -533 -136
-791 -30 -126 52 -244 133 -345 238 -96 100 -149 173 -206 288 -84 167 -122
321 -130 525 -5 157 6 256 47 408 l22 82 37 0 c20 1 55 5 79 9 23 5 42 7 42 6
0 -1 -11 -33 -24 -71 -101 -288 -81 -636 52 -899 48 -96 85 -149 160 -227 263
-274 624 -277 892 -8 333 335 382 944 110 1357 -172 262 -434 380 -695 313
-43 -11 -79 -20 -81 -20 -1 0 -11 15 -23 33 -11 17 -30 46 -41 62 -11 17 -20
33 -20 36 0 3 35 22 78 42 181 85 385 111 582 76z m-1125 -109 c19 -20 43 -33
69 -37 36 -5 37 -7 21 -20 -77 -55 -193 65 -142 147 11 19 12 17 18 -20 3 -25
16 -51 34 -70z m928 -147 c236 -70 431 -301 514 -610 25 -90 27 -113 27 -288
-1 -174 -3 -198 -27 -290 -102 -378 -367 -629 -667 -629 -358 0 -652 341 -699
811 -12 112 -1 275 25 378 23 96 65 205 78 205 6 0 45 16 86 35 53 26 92 55
142 105 l68 70 54 -45 54 -44 7 38 c5 33 -6 153 -21 222 -5 24 -2 26 53 42 32
9 72 19 88 21 49 7 162 -4 218 -21z m-812 -30 c71 -23 139 -90 167 -164 11
-30 19 -55 17 -57 -2 -2 -98 22 -214 52 -116 31 -218 56 -228 56 -9 0 -39 -17
-67 -38 -78 -59 -79 -59 -61 -15 38 92 105 154 188 173 57 14 143 10 198 -7z"/>
<path d="M1660 2191 c0 -6 26 -27 57 -48 194 -128 351 -361 418 -620 130 -500
-50 -1038 -430 -1283 -56 -37 -79 -60 -60 -60 13 0 74 36 125 73 211 155 365
424 415 726 27 159 17 388 -23 543 -34 130 -97 272 -167 378 -58 88 -172 203
-254 258 -64 43 -81 49 -81 33z"/>
<path d="M1233 1948 c-27 -33 -70 -240 -94 -453 -11 -96 -16 -114 -40 -142
-74 -87 -52 -219 44 -266 46 -23 86 -16 130 23 32 28 33 28 182 29 196 1 255
12 255 46 0 30 -115 64 -265 80 -109 11 -135 17 -135 29 0 6 -8 23 -17 36 -16
23 -18 51 -15 295 2 149 -1 283 -6 299 -9 34 -24 43 -39 24z m5 -598 c35 -21
62 -72 62 -114 0 -40 -29 -103 -55 -120 -33 -22 -87 -20 -117 4 -75 58 -58
205 27 240 31 13 48 11 83 -10z"/>
</g>
</svg>
